# xmcd
#
# Track frame offsets: 
#        150
#        12442
#        27360
#        43720
#        60337
#        76612
#        89815
#        104240
#        120385
#        136485
#        151872
#        168907
#        186680
#        201950
#        216132
#        230195
#        244102
#        256665
#        270555
#        284090
#        297945
#
# Disc length: 4153 seconds
#
# Revision: 0
# Processed by: cddbd v1.5.1PL0 Copyright (c) Steve Scherf et al.
# Submitted via: ExactAudioCopy v0.95a5
#
DISCID=3a103715
DTITLE=Various Artist - Levanta Poeira - Barretos 2004
DYEAR=2004
DGENRE=Country
TTITLE0=Silicone - Delley and Dorivan
TTITLE1=Roda De Amigos - Roby and Roger
TTITLE2=Amor Eu Choro - Otávio Augusto and Gabriel
TTITLE3=Toma Conta De Mim - João Pedro and Cristiano
TTITLE4=A Turma Do Zóio Roxo - Jad and Jefferson
TTITLE5=A Coisa Das Muié - Roberto Meirin and Marciano
TTITLE6=Cara De Boi - Gino and Geno
TTITLE7=Bomba Relógio - Chico Rey and Paraná
TTITLE8=Correnteza De Emoção - Eros and Eron
TTITLE9=Eu Me Enganei - Ataíde and Alexandre
TTITLE10=Com Destino A Barretos - Juliano Cesar
TTITLE11=Um Louco - Zé Henrique and Gabriel
TTITLE12=Turum Tum Tum - Ronny and Rangel
TTITLE13=Vivendo No Sertão - João Mulato and Douradinho
TTITLE14=Fogo No Salão - Guto and Nando
TTITLE15=Cheguei Pra Arrepiar - Diego and Diogo
TTITLE16=A Viola Tiniu - Diogo and Marcel
TTITLE17=Na Base Do Shenhenhem - Dois A Um
TTITLE18=Comendo Poeira - Sula Mazurega
TTITLE19=100 % Do Brasil - Allisson and Robertto
TTITLE20=Dim Terim Bebim - Ney and Nando
EXTD=
EXTT0=
EXTT1=
EXTT2=
EXTT3=
EXTT4=
EXTT5=
EXTT6=
EXTT7=
EXTT8=
EXTT9=
EXTT10=
EXTT11=
EXTT12=
EXTT13=
EXTT14=
EXTT15=
EXTT16=
EXTT17=
EXTT18=
EXTT19=
EXTT20=
PLAYORDER=
